<svg width="24" height="25" viewBox="0 0 24 25" fill="none" xmlns="http://www.w3.org/2000/svg">
  <path d="M12 11.6198C13.3261 11.6198 14.5979 12.1451 15.5355 13.0802C16.4732 14.0153 17 15.2836 17 16.606V22.5896H15V16.606C15 15.8429 14.7077 15.1087 14.1827 14.5534C13.6578 13.9982 12.9399 13.664 12.176 13.6193L12 13.6143C11.2348 13.6142 10.4985 13.9058 9.94174 14.4293C9.38499 14.9528 9.04989 15.6687 9.005 16.4305L9 16.606V22.5896H7V16.606C7 15.2836 7.52678 14.0153 8.46447 13.0802C9.40215 12.1451 10.6739 11.6198 12 11.6198ZM5.5 14.6115C5.779 14.6115 6.05 14.6445 6.31 14.7053C6.13902 15.2129 6.03777 15.7412 6.009 16.276L6 16.606V16.6918C5.88505 16.6508 5.76549 16.624 5.644 16.612L5.5 16.606C5.12712 16.6061 4.76761 16.7446 4.49158 16.9946C4.21555 17.2446 4.0428 17.5882 4.007 17.9583L4 18.1019V22.5896H2V18.1019C2 17.1762 2.36875 16.2884 3.02513 15.6339C3.6815 14.9793 4.57174 14.6115 5.5 14.6115ZM18.5 14.6115C19.4283 14.6115 20.3185 14.9793 20.9749 15.6339C21.6313 16.2884 22 17.1762 22 18.1019V22.5896H20V18.1019C20 17.7301 19.8611 17.3715 19.6104 17.0963C19.3597 16.821 19.0152 16.6487 18.644 16.613L18.5 16.606C18.325 16.606 18.157 16.636 18 16.6908V16.606C18 15.9419 17.892 15.3036 17.691 14.7073C17.9559 14.6433 18.2275 14.6112 18.5 14.6115ZM5.5 8.62804C6.16304 8.62804 6.79893 8.8907 7.26777 9.35826C7.73661 9.82581 8 10.4599 8 11.1212C8 11.7824 7.73661 12.4165 7.26777 12.8841C6.79893 13.3516 6.16304 13.6143 5.5 13.6143C4.83696 13.6143 4.20107 13.3516 3.73223 12.8841C3.26339 12.4165 3 11.7824 3 11.1212C3 10.4599 3.26339 9.82581 3.73223 9.35826C4.20107 8.8907 4.83696 8.62804 5.5 8.62804ZM18.5 8.62804C19.163 8.62804 19.7989 8.8907 20.2678 9.35826C20.7366 9.82581 21 10.4599 21 11.1212C21 11.7824 20.7366 12.4165 20.2678 12.8841C19.7989 13.3516 19.163 13.6143 18.5 13.6143C17.837 13.6143 17.2011 13.3516 16.7322 12.8841C16.2634 12.4165 16 11.7824 16 11.1212C16 10.4599 16.2634 9.82581 16.7322 9.35826C17.2011 8.8907 17.837 8.62804 18.5 8.62804ZM5.5 10.6225C5.36739 10.6225 5.24021 10.6751 5.14645 10.7686C5.05268 10.8621 5 10.9889 5 11.1212C5 11.2534 5.05268 11.3802 5.14645 11.4737C5.24021 11.5673 5.36739 11.6198 5.5 11.6198C5.63261 11.6198 5.75979 11.5673 5.85355 11.4737C5.94732 11.3802 6 11.2534 6 11.1212C6 10.9889 5.94732 10.8621 5.85355 10.7686C5.75979 10.6751 5.63261 10.6225 5.5 10.6225ZM18.5 10.6225C18.3674 10.6225 18.2402 10.6751 18.1464 10.7686C18.0527 10.8621 18 10.9889 18 11.1212C18 11.2534 18.0527 11.3802 18.1464 11.4737C18.2402 11.5673 18.3674 11.6198 18.5 11.6198C18.6326 11.6198 18.7598 11.5673 18.8536 11.4737C18.9473 11.3802 19 11.2534 19 11.1212C19 10.9889 18.9473 10.8621 18.8536 10.7686C18.7598 10.6751 18.6326 10.6225 18.5 10.6225ZM12 2.64453C13.0609 2.64453 14.0783 3.0648 14.8284 3.81288C15.5786 4.56097 16 5.57559 16 6.63353C16 7.69148 15.5786 8.7061 14.8284 9.45419C14.0783 10.2023 13.0609 10.6225 12 10.6225C10.9391 10.6225 9.92172 10.2023 9.17157 9.45419C8.42143 8.7061 8 7.69148 8 6.63353C8 5.57559 8.42143 4.56097 9.17157 3.81288C9.92172 3.0648 10.9391 2.64453 12 2.64453ZM12 4.63903C11.4696 4.63903 10.9609 4.84917 10.5858 5.22321C10.2107 5.59725 10 6.10456 10 6.63353C10 7.16251 10.2107 7.66982 10.5858 8.04386C10.9609 8.4179 11.4696 8.62804 12 8.62804C12.5304 8.62804 13.0391 8.4179 13.4142 8.04386C13.7893 7.66982 14 7.16251 14 6.63353C14 6.10456 13.7893 5.59725 13.4142 5.22321C13.0391 4.84917 12.5304 4.63903 12 4.63903Z" fill="white" />
</svg>