<svg width="24" height="25" viewBox="0 0 24 25" fill="none" xmlns="http://www.w3.org/2000/svg">
  <path d="M18 4.71973H6C3.79086 4.71973 2 6.50566 2 8.70873V18.6812C2 20.8843 3.79086 22.6702 6 22.6702H18C20.2091 22.6702 22 20.8843 22 18.6812V8.70873C22 6.50566 20.2091 4.71973 18 4.71973Z" stroke="white" stroke-width="2" stroke-linecap="round" stroke-linejoin="round" />
  <path d="M8 2.72559V6.71458" stroke="white" stroke-width="2" stroke-linecap="round" stroke-linejoin="round" />
  <path d="M16 2.72559V6.71458" stroke="white" stroke-width="2" stroke-linecap="round" stroke-linejoin="round" />
  <path d="M2 10.7031H22" stroke="white" stroke-width="2" stroke-linecap="round" stroke-linejoin="round" />
  <path d="M16.0319 13.915C16.1018 13.9845 16.1572 14.0671 16.195 14.1579C16.2328 14.2488 16.2523 14.3462 16.2523 14.4446C16.2523 14.543 16.2328 14.6404 16.195 14.7312C16.1572 14.8221 16.1018 14.9046 16.0319 14.9741L11.5319 19.4617C11.4623 19.5314 11.3795 19.5867 11.2884 19.6244C11.1973 19.6621 11.0996 19.6815 11.0009 19.6815C10.9023 19.6815 10.8046 19.6621 10.7135 19.6244C10.6224 19.5867 10.5396 19.5314 10.4699 19.4617L8.21995 17.2179C8.15022 17.1484 8.0949 17.0658 8.05716 16.975C8.01942 16.8841 8 16.7867 8 16.6884C8 16.5901 8.01942 16.4927 8.05716 16.4018C8.0949 16.311 8.15022 16.2284 8.21995 16.1589C8.36078 16.0184 8.55178 15.9395 8.75095 15.9395C8.84956 15.9395 8.94721 15.9589 9.03832 15.9965C9.12943 16.0342 9.21222 16.0893 9.28195 16.1589L11.0009 17.8746L14.9699 13.915C15.0396 13.8454 15.1224 13.7901 15.2135 13.7524C15.3046 13.7147 15.4023 13.6953 15.5009 13.6953C15.5996 13.6953 15.6973 13.7147 15.7884 13.7524C15.8795 13.7901 15.9623 13.8454 16.0319 13.915Z" fill="white" />
</svg>