<svg width="24" height="25" viewBox="0 0 24 25" fill="none" xmlns="http://www.w3.org/2000/svg">
  <g clip-path="url(#clip0_114_3969)">
    <path d="M12.0004 24.3637C6.79719 24.3637 2.40039 21.9284 2.40039 19.0455V5.74782C2.40039 2.86497 6.79719 0.429688 12.0004 0.429688C17.2036 0.429688 21.6004 2.86497 21.6004 5.74782V19.0455C21.6004 21.9284 17.2048 24.3637 12.0004 24.3637ZM4.80039 15.8671V19.0491C4.88439 19.7109 7.57119 21.7082 12.0004 21.7082C16.4296 21.7082 19.1176 19.7049 19.2004 19.042V15.8671C17.0157 17.1301 14.5251 17.7705 12.0004 17.7184C9.47567 17.7705 6.98509 17.1301 4.80039 15.8671ZM4.80039 9.21466V12.3967C4.88439 13.0585 7.57119 15.0557 12.0004 15.0557C16.4296 15.0557 19.1176 13.0525 19.2004 12.3895V9.21466C17.0158 10.4781 14.5252 11.1189 12.0004 11.0671C9.47555 11.119 6.98494 10.4782 4.80039 9.21466ZM12.0004 3.08875C7.56999 3.08875 4.88319 5.09203 4.80039 5.7562C4.88439 6.41319 7.57359 8.40689 12.0004 8.40689C16.4272 8.40689 19.1176 6.40361 19.2004 5.74064C19.1164 5.08126 16.4272 3.08875 12.0004 3.08875Z" fill="white" />
  </g>
  <defs>
    <clipPath id="clip0_114_3969">
      <rect width="24" height="23.934" fill="white" transform="translate(0 0.429688)" />
    </clipPath>
  </defs>
</svg>